<?xml version="1.0" encoding="UTF-8" standalone="no"?>
<svg xmlns="http://www.w3.org/2000/svg" viewBox="0 0 64 64" width="12" height="12">
    <defs>
        <style>.cls-1{fill:url(#linear-gradient);}</style>
        <linearGradient id="linear-gradient" x1="2" y1="32.02" x2="62" y2="32.02" gradientUnits="userSpaceOnUse">
            <stop offset="0" stop-color="#17a6d7"/>
            <stop offset="1" stop-color="#9d31fe"/>
        </linearGradient>
    </defs>
    <g id="Layer_37" data-name="Layer 37">
        <path class="cls-1"
              d="M62,36a10,10,0,0,0-7.91-9.71V16.66a6.76,6.76,0,0,0-6.75-6.75H37.76C35.42-.61,20.64-.53,18.33,9.91H8.75A6.76,6.76,0,0,0,2,16.66V28a2,2,0,0,0,2,2c7.8.23,7.83,11.54,0,11.83a2,2,0,0,0-2,2V55.25A6.76,6.76,0,0,0,8.75,62H20.13a2,2,0,0,0,2-2c.29-7.81,11.59-7.76,11.83,0a2,2,0,0,0,2,2H47.34a6.76,6.76,0,0,0,6.75-6.75V45.67A10,10,0,0,0,62,36Zm-5.73,4.18a5.88,5.88,0,0,1-4.15,1.74,2,2,0,0,0-2,2V55.25A2.75,2.75,0,0,1,47.34,58H37.76c-2.35-10.55-17.15-10.44-19.43,0H8.75A2.75,2.75,0,0,1,6,55.25V45.67c10.55-2.35,10.44-17.15,0-19.43V16.66a2.75,2.75,0,0,1,2.75-2.75H20.13a2,2,0,0,0,2-2C22.07,6.74,28.66,4,32.22,7.73A5.84,5.84,0,0,1,34,11.88a2,2,0,0,0,2,2H47.34a2.75,2.75,0,0,1,2.75,2.75V28a2,2,0,0,0,2,2C57.26,30,60,36.57,56.27,40.13Z"/>
    </g>
</svg>